<?xml version="1.0" standalone="no"?>
<!DOCTYPE svg PUBLIC "-//W3C//DTD SVG 20010904//EN"
 "http://www.w3.org/TR/2001/REC-SVG-20010904/DTD/svg10.dtd">
<svg version="1.0" xmlns="http://www.w3.org/2000/svg"
 width="512.000000pt" height="512.000000pt" viewBox="0 0 512.000000 512.000000"
 preserveAspectRatio="xMidYMid meet">
<metadata>
Created by potrace 1.14, written by Peter Selinger 2001-2017
</metadata>
<g transform="translate(0.000000,512.000000) scale(0.100000,-0.100000)"
fill="#000000" stroke="none">
<path d="M4307 4694 c-1 -1 -39 -4 -83 -8 -108 -8 -235 -46 -364 -107 -57 -27
-107 -53 -110 -57 -3 -4 -39 -29 -80 -57 -73 -49 -251 -216 -300 -283 l-25
-33 -110 36 c-248 82 -419 109 -680 109 -257 0 -428 -28 -675 -111 l-105 -35
-25 34 c-52 71 -233 239 -321 298 -223 149 -408 211 -619 207 -103 -2 -119 -5
-155 -27 -83 -51 -166 -176 -221 -335 -115 -329 -80 -722 97 -1096 l50 -105
-60 -115 c-94 -181 -159 -352 -196 -514 -37 -170 -46 -246 -46 -390 0 -155 8
-227 41 -357 44 -173 134 -347 251 -488 l37 -46 -193 -148 c-129 -98 -197
-157 -203 -175 -11 -30 0 -68 26 -87 40 -30 66 -17 254 126 100 77 191 147
201 155 9 8 20 15 23 15 4 0 50 -33 103 -72 53 -40 97 -73 99 -74 3 -2 -68
-105 -95 -139 -5 -5 -52 -72 -106 -147 -69 -97 -97 -145 -97 -166 0 -61 87
-96 128 -51 11 11 84 110 162 220 78 109 148 199 154 199 7 0 16 -4 22 -9 13
-14 228 -105 315 -134 41 -14 118 -37 172 -52 93 -25 109 -29 167 -40 14 -3
36 -7 50 -10 14 -3 39 -7 55 -10 17 -3 41 -8 55 -10 29 -6 74 -12 149 -21 30
-3 62 -7 72 -9 124 -24 690 -24 884 0 153 19 271 37 330 50 6 2 26 5 45 9 53
8 285 73 370 103 86 30 270 110 284 124 21 20 38 4 128 -122 195 -274 220
-304 257 -307 24 -3 40 3 57 19 46 44 37 66 -125 293 l-150 208 101 75 c69 52
106 73 114 67 15 -11 126 -96 275 -212 59 -45 120 -85 136 -88 42 -8 83 27 83
71 0 40 -17 60 -111 130 -36 28 -116 88 -176 135 l-111 85 37 45 c254 307 346
700 266 1137 -25 140 -57 251 -110 385 -35 88 -147 313 -165 331 -4 5 7 34 24
65 81 143 159 393 181 577 9 78 7 262 -4 347 -21 159 -89 340 -172 458 -58 84
-113 118 -207 130 -29 3 -54 5 -55 4z"/>
</g>
</svg>
